<svg width="362" height="310" viewBox="0 0 362 310" fill="none" xmlns="http://www.w3.org/2000/svg">
<g clip-path="url(#clip0_343_698)">
<path d="M187.387 260.526L197.793 257.46L194.756 267.896L197.793 278.302L187.387 275.266L176.951 278.302L180.017 267.896L176.951 257.46L187.387 260.526Z" fill="black" stroke="white" stroke-miterlimit="10"/>
</g>
<g clip-path="url(#clip1_343_698)">
<path d="M75.2104 207.977L94.1571 218.3L75.2104 228.706L64.8457 247.612L54.481 228.706L35.5343 218.3L54.481 207.977L64.8457 188.989L75.2104 207.977Z" fill="black" stroke="white" stroke-miterlimit="10"/>
</g>
<path d="M339.669 234.26C338.559 236.273 336.482 237.747 333.446 238.668C330.407 239.59 326.451 239.941 321.671 239.735C312.112 239.323 299.369 236.686 284.318 232.08C254.225 222.869 215.015 205.815 173.826 183.096C132.638 160.377 97.2965 136.309 73.4532 115.768C61.5284 105.496 52.5004 96.1228 47.0525 88.2577C44.328 84.3242 42.5154 80.7912 41.6738 77.7292C40.8329 74.6698 40.9722 72.1261 42.0824 70.1133C43.1926 68.1006 45.2698 66.6258 48.3063 65.7051C51.3451 64.7836 55.3004 64.432 60.0808 64.6382C69.6396 65.0506 82.3833 67.687 97.4337 72.2934C127.526 81.5039 166.737 98.5579 207.925 121.277C249.114 143.996 284.455 168.065 308.299 188.605C320.223 198.878 329.251 208.25 334.699 216.116C337.424 220.049 339.236 223.582 340.078 226.644C340.919 229.703 340.78 232.247 339.669 234.26Z" stroke="black"/>
<path d="M327.492 256.336C326.381 258.348 324.304 259.823 321.268 260.744C318.229 261.665 314.274 262.017 309.493 261.811C299.935 261.398 287.191 258.762 272.14 254.156C242.048 244.945 202.837 227.891 161.649 205.172C120.46 182.453 85.1188 158.384 61.2755 137.844C49.3506 127.571 40.3226 118.199 34.8748 110.333C32.1503 106.4 30.3377 102.867 29.4961 99.8049C28.6551 96.7454 28.7944 94.2017 29.9047 92.189C31.0149 90.1763 33.0921 88.7015 36.1285 87.7807C39.1674 86.8592 43.1226 86.5077 47.9031 86.7139C57.4618 87.1263 70.2055 89.7626 85.2559 94.3691C115.349 103.58 154.559 120.634 195.748 143.353C236.936 166.072 272.278 190.14 296.121 210.68C308.046 220.953 317.074 230.326 322.522 238.191C325.246 242.125 327.059 245.658 327.9 248.72C328.741 251.779 328.602 254.323 327.492 256.336Z" stroke="black"/>
<path d="M315.316 278.411C314.206 280.424 312.128 281.898 309.092 282.819C306.053 283.741 302.098 284.092 297.318 283.886C287.759 283.474 275.015 280.837 259.965 276.231C229.872 267.02 190.661 249.966 149.473 227.247C108.285 204.528 72.943 180.46 49.0997 159.919C37.1748 149.646 28.1469 140.274 22.699 132.409C19.9745 128.475 18.1619 124.942 17.3203 121.88C16.4793 118.821 16.6187 116.277 17.7289 114.264C18.8391 112.251 20.9163 110.777 23.9527 109.856C26.9916 108.934 30.9469 108.583 35.7273 108.789C45.2861 109.201 58.0298 111.838 73.0801 116.444C103.173 125.655 142.384 142.709 183.572 165.428C224.76 188.147 260.102 212.215 283.945 232.756C295.87 243.029 304.898 252.401 310.346 260.266C313.07 264.2 314.883 267.733 315.724 270.795C316.565 273.854 316.426 276.398 315.316 278.411Z" stroke="black"/>
<ellipse cx="79.1188" cy="62.9256" rx="9.71642" ry="9.25373" fill="#B9FF66"/>
<circle cx="253.089" cy="261.418" r="6.01493" fill="#B9FF66"/>
<circle cx="49.0447" cy="38.8659" r="13.8806" fill="black"/>
<path d="M184.179 230.899C180.385 232.196 176.048 229.626 174.539 225.169L151.064 156.39L164.782 151.698L188.28 220.571C189.789 224.981 187.95 229.602 184.179 230.899Z" fill="black"/>
<path d="M182.129 231.747C181.022 231.747 179.89 231.488 178.806 230.946C176.614 229.861 174.87 227.833 174.022 225.334L150.547 156.555C150.452 156.296 150.594 155.989 150.877 155.895L164.594 151.203C164.735 151.156 164.877 151.156 164.995 151.226C165.112 151.297 165.207 151.391 165.254 151.533L188.752 220.406C190.331 225.075 188.352 230.003 184.321 231.394C183.638 231.63 182.884 231.747 182.129 231.747ZM151.725 156.72L175.035 225.004C175.789 227.244 177.345 229.083 179.277 230.026C180.833 230.781 182.506 230.922 184.015 230.403C187.503 229.201 189.2 224.862 187.786 220.736L164.452 152.358L151.725 156.72Z" fill="black"/>
<path d="M162.353 92.3273L117.973 123.993L100.697 141.937L93.9086 153.938L93.885 154.033C92.5416 156.107 93.3194 160.894 95.8413 165.775C98.316 170.585 101.804 173.933 104.255 174.122L104.185 174.169L117.219 175.583L141.613 171.693L193.394 153.16L257.761 164.195L258.209 164.219C242.041 161.2 220.216 139.579 204.354 108.997C188.515 78.4395 183.471 48.2352 190.424 33.3335H190.401L162.707 91.5728L162.353 92.3273Z" fill="#B9FF66"/>
<path d="M268.908 162.887C284.816 154.622 281.74 117.155 262.037 79.2015C242.335 41.2479 213.467 17.1802 197.559 25.4448C181.652 33.7094 184.728 71.1767 204.43 109.13C224.132 147.084 253 171.152 268.908 162.887Z" fill="white"/>
<path d="M261.912 165.044C254.983 165.044 246.639 161.177 237.659 153.656C225.427 143.422 213.43 127.648 203.885 109.21C189.437 81.2927 183.474 52.6682 188.706 36.2811C190.45 30.8108 193.373 26.9911 197.356 24.9397C205.275 20.8842 216.424 24.3267 228.774 34.6541C241.006 44.8873 253.003 60.6614 262.548 79.0999C277.02 107.017 282.983 135.641 277.727 152.029C275.983 157.499 273.06 161.319 269.077 163.37C266.932 164.502 264.528 165.044 261.912 165.044ZM204.568 24.3267C202.141 24.3267 199.878 24.8218 197.851 25.8829C194.104 27.7927 191.369 31.4239 189.72 36.6347C184.558 52.7861 190.497 81.1041 204.827 108.785C224.343 146.44 252.956 170.538 268.629 162.498C272.377 160.588 275.111 156.957 276.761 151.746C281.922 135.594 275.983 107.276 261.653 79.595C244.659 46.8207 220.807 24.3267 204.568 24.3267Z" fill="black"/>
<path d="M261.91 165.043C254.981 165.043 246.637 161.177 237.657 153.655C225.425 143.422 213.428 127.648 203.883 109.209C189.435 81.2921 183.472 52.6676 188.704 36.2805C190.448 30.8102 193.371 26.9905 197.354 24.9392C202.657 22.204 209.586 22.8878 217.388 26.8962C224.859 30.7395 232.944 37.5537 240.816 46.5844C241.004 46.7966 240.981 47.1267 240.769 47.3153C240.556 47.5039 240.226 47.4803 240.038 47.2681C224.058 28.9239 207.89 20.7186 197.849 25.8823C194.102 27.7922 191.368 31.4233 189.718 36.6342C184.556 52.7855 190.495 81.1035 204.826 108.785C221.795 141.536 245.671 164.053 261.886 164.053C264.314 164.053 266.577 163.558 268.604 162.497C272.351 160.587 275.085 156.956 276.735 151.745C281.897 135.594 275.957 107.276 261.627 79.5945C257.361 71.3419 252.553 63.5846 247.391 56.5345C247.226 56.2988 247.274 55.9687 247.509 55.8036C247.745 55.6386 248.075 55.6857 248.24 55.9215C253.449 63.0187 258.257 70.8232 262.57 79.1229C277.018 107.016 282.981 135.641 277.725 152.028C275.981 157.498 273.058 161.318 269.075 163.369C266.93 164.501 264.526 165.043 261.91 165.043Z" fill="black"/>
<path d="M232.813 114.573C236.499 112.659 235.79 103.986 231.23 95.2028C226.671 86.4194 219.987 80.8511 216.302 82.7657C212.616 84.6803 213.325 93.3528 217.885 102.136C222.444 110.92 229.128 116.488 232.813 114.573Z" fill="#B9FF66"/>
<path d="M231.199 115.481C227.145 115.481 221.489 110.247 217.411 102.348C214.017 95.7933 212.627 89.0498 213.876 85.1593C214.324 83.7918 215.054 82.825 216.068 82.3063C220.075 80.255 226.933 85.8431 231.694 95.0152C235.088 101.57 236.479 108.314 235.23 112.204C234.782 113.572 234.051 114.538 233.038 115.057C232.472 115.34 231.859 115.481 231.199 115.481ZM217.906 82.8958C217.411 82.8958 216.94 82.9901 216.539 83.2023C215.762 83.6031 215.196 84.3577 214.842 85.4658C213.687 89.097 215.031 95.5575 218.307 101.877C222.644 110.247 229.172 115.882 232.543 114.137C233.321 113.737 233.886 112.982 234.24 111.874C235.395 108.219 234.028 101.782 230.775 95.4632C226.957 88.1302 221.489 82.8958 217.906 82.8958Z" fill="#B9FF66"/>
<path d="M258.328 156.248C252.247 156.248 244.941 152.853 237.069 146.275C226.368 137.315 215.857 123.498 207.513 107.37C194.857 82.9423 189.648 57.8782 194.22 43.5188C195.752 38.7087 198.321 35.3606 201.833 33.545C209.894 29.4188 221.749 34.1816 234.382 46.6076C234.594 46.8198 234.594 47.1263 234.382 47.3385C234.17 47.5507 233.863 47.5507 233.651 47.3385C221.348 35.2427 209.917 30.5269 202.304 34.4646C199.052 36.1387 196.671 39.2746 195.21 43.8253C190.708 57.9253 195.894 82.6829 208.432 106.898C223.257 135.546 244.116 155.211 258.305 155.211C260.426 155.211 262.382 154.763 264.173 153.867C267.426 152.193 269.806 149.057 271.268 144.506C275.769 130.406 270.584 105.649 258.045 81.4333C254.251 74.1239 250.008 67.2625 245.436 61.0613C245.271 60.8255 245.318 60.4954 245.554 60.3304C245.789 60.1653 246.119 60.2125 246.284 60.4483C250.904 66.7202 255.17 73.6051 258.988 80.9617C271.645 105.389 276.854 130.453 272.281 144.813C270.749 149.623 268.18 152.971 264.668 154.786C262.736 155.753 260.615 156.248 258.328 156.248Z" fill="black"/>
<path d="M117.244 176.079C117.22 176.079 117.197 176.079 117.197 176.079L104.163 174.664C104.092 174.664 104.022 174.641 103.951 174.593C101.264 174.169 97.87 170.774 95.3952 166.011C92.7555 160.988 91.9777 156.084 93.4154 153.773L93.439 153.703L100.227 141.678C100.25 141.63 100.274 141.607 100.298 141.583L117.574 123.64C117.597 123.616 117.621 123.593 117.645 123.569L161.907 91.9738L189.908 33.0979C189.978 32.98 190.073 32.8857 190.214 32.8385C190.355 32.7914 190.497 32.7914 190.615 32.8621C190.874 32.98 190.992 33.2865 190.874 33.5459C183.78 48.7541 189.389 78.9819 204.803 108.738C220.241 138.542 241.76 160.611 258.329 163.653C258.588 163.7 258.777 163.936 258.753 164.219C258.73 164.478 258.494 164.667 258.235 164.69L257.787 164.667C257.763 164.667 257.74 164.667 257.716 164.667L193.467 153.656L141.803 172.141C141.779 172.141 141.732 172.165 141.709 172.165L117.315 176.055C117.291 176.079 117.267 176.079 117.244 176.079ZM104.54 173.674L117.244 175.041L141.52 171.151L193.278 152.642C193.372 152.618 193.443 152.594 193.537 152.618L251.376 162.521C235.75 155.66 217.484 135.406 203.931 109.233C190.473 83.2497 184.463 56.8652 187.763 40.1951L162.827 92.5397C162.78 92.6104 162.732 92.6811 162.662 92.7283L118.328 124.394L101.123 142.243L94.3346 154.269C94.3346 154.292 94.3111 154.316 94.3111 154.316C93.0855 156.226 93.9104 160.941 96.2909 165.539C98.6242 170.043 101.995 173.438 104.304 173.603C104.399 173.603 104.469 173.627 104.54 173.674Z" fill="black"/>
<path d="M162.424 92.1388L190.4 33.3101H190.424C183.471 48.2118 188.538 78.416 204.353 108.974C220.215 139.579 242.04 161.201 258.256 164.172L257.808 164.148L193.535 153.137L192.05 152.877C184.579 151.557 174.609 141.843 167.468 127.978C160.138 113.76 158.841 99.5896 162.094 92.8461L162.424 92.1388Z" fill="white"/>
<path d="M258.257 164.69C258.234 164.69 258.257 164.69 258.257 164.69L257.786 164.667C257.762 164.667 257.739 164.667 257.715 164.667L193.442 153.655L191.957 153.396C184.061 152.005 174.044 141.89 166.997 128.238C159.007 112.723 158.607 98.9058 161.624 92.6338L161.977 91.9265L189.954 33.1213C190.024 33.0034 190.119 32.9091 190.26 32.862C190.401 32.8148 190.543 32.8148 190.661 32.8855C190.92 33.0034 191.038 33.31 190.92 33.5693C183.826 48.7776 189.435 79.0054 204.849 108.762C220.287 138.565 241.806 160.635 258.375 163.676C258.634 163.723 258.823 163.959 258.799 164.242C258.729 164.478 258.516 164.69 258.257 164.69ZM187.715 40.1949L162.896 92.3745L162.543 93.0818C159.549 99.3066 160.422 113.218 167.917 127.742C174.822 141.135 184.556 151.038 192.146 152.359L193.63 152.618L251.351 162.521C235.725 155.66 217.459 135.406 203.907 109.233C190.449 83.2495 184.439 56.865 187.715 40.1949Z" fill="black"/>
<path d="M116.536 176.008C116.512 176.008 116.489 176.008 116.489 176.008L104.138 174.687C104.068 174.687 103.997 174.664 103.926 174.617C101.239 174.192 97.8454 170.797 95.3706 166.034C92.7544 160.988 91.9766 156.084 93.4144 153.773L93.4379 153.702L100.226 141.677C100.367 141.418 100.674 141.347 100.933 141.489C101.192 141.63 101.263 141.937 101.121 142.196L94.3336 154.268C94.3336 154.292 94.31 154.315 94.31 154.315C93.0844 156.225 93.9093 160.941 96.2898 165.539C98.6231 170.042 101.994 173.438 104.303 173.603C104.374 173.603 104.468 173.626 104.515 173.673L116.583 174.97C116.866 174.994 117.078 175.253 117.031 175.536C117.007 175.796 116.795 176.008 116.536 176.008Z" fill="black"/>
<path d="M117.36 175.489C113.353 175.206 107.744 169.524 103.666 161.672C99.3531 153.349 98.3396 144.742 100.979 141.677L93.9322 153.938L93.885 154.032C92.5416 156.107 93.3194 160.894 95.8413 165.775C98.316 170.585 101.804 173.933 104.255 174.121L104.185 174.169L117.36 175.489Z" fill="white"/>
<path d="M117.361 176.008C117.337 176.008 117.337 176.008 117.313 176.008C117.219 176.008 117.101 175.984 117.007 175.984L104.138 174.688C104.068 174.688 103.997 174.664 103.926 174.617C101.239 174.192 97.8454 170.797 95.3706 166.034C92.7544 160.988 91.9766 156.084 93.4144 153.773L93.4379 153.703L99.6366 142.904C99.8723 142.29 100.179 141.748 100.556 141.3C100.721 141.088 101.027 141.064 101.239 141.206C101.451 141.371 101.522 141.654 101.381 141.89L100.509 143.375C99.1181 147.124 100.485 154.481 104.068 161.366C107.957 168.887 113.26 174.381 117.054 174.876L117.337 174.9C117.62 174.923 117.832 175.183 117.808 175.466C117.832 175.796 117.62 176.008 117.361 176.008ZM104.515 173.674L113.519 174.593C110.054 172.377 106.236 167.803 103.196 161.908C100.249 156.225 98.7881 150.331 99.0238 146.087L94.3336 154.268C94.3336 154.292 94.31 154.316 94.31 154.316C93.0844 156.225 93.9093 160.941 96.2898 165.539C98.6231 170.043 101.994 173.438 104.303 173.603C104.374 173.603 104.468 173.627 104.515 173.674Z" fill="black"/>
<path d="M140.742 171.787L141.779 171.575C136.17 172.754 127.308 164.265 121.062 152.217C114.675 139.909 113.473 127.624 117.998 123.993L117.409 124.583L101.028 141.606C98.3413 144.624 99.3312 153.278 103.668 161.648C107.84 169.712 113.756 175.465 117.786 175.442L140.742 171.787Z" fill="black"/>
<path d="M117.762 175.984C113.473 175.984 107.51 170.207 103.196 161.908C98.8126 153.419 97.7048 144.554 100.627 141.276L116.702 124.583C116.984 124.205 117.314 123.875 117.668 123.592C117.88 123.427 118.186 123.451 118.375 123.639C118.564 123.852 118.564 124.158 118.375 124.347L117.456 125.314C114.18 129.699 115.806 140.923 121.533 151.981C127.708 163.912 136.335 172.094 141.614 171.103L141.685 171.08C141.968 171.033 142.227 171.198 142.298 171.481C142.345 171.763 142.18 172.023 141.897 172.094C141.873 172.094 141.85 172.094 141.826 172.117L140.86 172.306H140.836L117.88 175.96C117.833 175.96 117.786 175.984 117.762 175.984ZM115.335 127.506L101.405 141.984C98.8126 144.907 99.991 153.443 104.139 161.436C108.193 169.264 113.92 174.923 117.762 174.947L138.032 171.716C132.564 169.783 125.823 162.497 120.614 152.476C115.665 142.927 113.755 133.212 115.335 127.506Z" fill="black"/>
<path d="M216.304 82.7539C212.604 84.6402 213.146 93.3879 217.86 102.112C225.755 116.707 232.048 114.986 232.779 114.727C232.803 114.727 232.803 114.75 232.779 114.75L219.227 125.667C215.244 120.079 211.449 113.854 207.961 107.134C204.637 100.697 201.833 94.2839 199.617 88.0591L216.304 82.7539Z" fill="black"/>
<path d="M219.227 126.186C219.203 126.186 219.18 126.186 219.156 126.186C219.015 126.162 218.897 126.091 218.803 125.974C214.725 120.244 210.931 113.972 207.513 107.394C204.237 101.074 201.409 94.6375 199.146 88.2713C199.099 88.1298 199.099 87.9883 199.17 87.8704C199.24 87.7525 199.335 87.6582 199.476 87.6111L216.163 82.3059C216.422 82.2351 216.705 82.353 216.799 82.6124C216.894 82.8718 216.799 83.1547 216.564 83.2726C215.762 83.6734 215.173 84.4751 214.82 85.654C213.665 89.3559 215.079 95.9107 218.355 101.923C226.062 116.165 232.002 114.538 232.638 114.302C232.874 114.208 233.156 114.326 233.274 114.538C233.392 114.75 233.345 115.057 233.156 115.222L219.557 126.068C219.463 126.139 219.345 126.186 219.227 126.186ZM200.301 88.3892C202.54 94.5432 205.274 100.768 208.432 106.898C211.732 113.265 215.409 119.324 219.345 124.912L231.106 115.434C228.419 115.316 223.352 113.312 217.412 102.348C213.971 96.0051 212.557 89.3087 213.806 85.2768C213.971 84.758 214.16 84.31 214.395 83.8856L200.301 88.3892Z" fill="black"/>
<path d="M286.031 49.117C296.806 43.4566 300.973 30.167 295.339 19.434C289.705 8.70097 276.403 4.58886 265.629 10.2493C254.854 15.9098 250.686 29.1994 256.32 39.9324C261.954 50.6654 275.256 54.7775 286.031 49.117Z" fill="black"/>
<path d="M265.793 24.8211C266.83 23.4063 268.362 22.5339 270.107 22.3453C271.426 22.2038 272.652 22.4868 273.807 23.1941C274.396 23.5478 274.915 23.9958 275.41 24.5381C275.763 23.9015 276.187 23.3356 276.682 22.864C277.649 21.9209 278.804 21.3786 280.1 21.2371C281.844 21.0485 283.541 21.5672 284.861 22.7226C286.157 23.8543 286.982 25.5048 287.194 27.3676C287.406 29.2774 286.888 31.1166 285.568 33.1443C284.389 34.9599 282.598 36.8462 280.524 39.0626C279.817 39.8171 279.016 40.6659 278.191 41.5619C277.979 41.7977 277.672 41.9627 277.342 41.9863C277.012 42.0335 276.706 41.9392 276.423 41.7505C275.41 41.0432 274.443 40.383 273.595 39.8171C271.096 38.1194 268.928 36.6575 267.373 35.1485C265.628 33.4744 264.733 31.7768 264.521 29.8669C264.332 28.0042 264.78 26.2122 265.793 24.8211Z" fill="white"/>
<path d="M347.156 50.3181C355.044 42.4269 355.044 29.6327 347.156 21.7415C339.268 13.8503 326.479 13.8503 318.591 21.7415C310.703 29.6327 310.703 42.4269 318.591 50.3181C326.479 58.2093 339.268 58.2093 347.156 50.3181Z" fill="#B9FF66"/>
<path d="M332.87 56.7472C321.462 56.7472 312.152 47.4572 312.152 36.0215C312.152 24.6095 321.439 15.2959 332.87 15.2959C344.301 15.2959 353.587 24.5859 353.587 36.0215C353.587 47.4336 344.301 56.7472 332.87 56.7472ZM332.87 16.3334C322.028 16.3334 313.189 25.1518 313.189 36.0215C313.189 46.8677 322.004 55.7097 332.87 55.7097C343.711 55.7097 352.55 46.8913 352.55 36.0215C352.55 25.1754 343.735 16.3334 332.87 16.3334Z" fill="#B9FF66"/>
<path d="M338.339 38.0256C337.208 38.0256 336.218 38.5679 335.558 39.4167L328.746 36.7524C328.746 36.658 328.77 36.5873 328.77 36.493C328.77 36.3279 328.746 36.1629 328.723 35.9978L335.699 32.7676C336.336 33.4985 337.278 33.9701 338.339 33.9937C340.272 33.9937 341.874 32.4139 341.874 30.4569C341.874 28.4998 340.295 26.8965 338.339 26.8965C336.406 26.8965 334.804 28.4763 334.804 30.4333C334.804 30.5983 334.827 30.7634 334.851 30.9284L327.874 34.1587C327.238 33.4278 326.295 32.9562 325.235 32.9326C323.302 32.9326 321.699 34.5124 321.699 36.4694C321.699 38.4264 323.278 40.0298 325.235 40.0298C326.366 40.0298 327.356 39.4875 328.016 38.6386L334.827 41.303C334.827 41.3974 334.804 41.4681 334.804 41.5624C334.804 43.5194 336.383 45.1228 338.339 45.1228C340.272 45.1228 341.874 43.543 341.874 41.586C341.851 39.629 340.272 38.0492 338.339 38.0256Z" fill="black"/>
<path d="M338.606 114.365C347.855 107.942 350.179 95.2772 343.796 86.0772C337.413 76.8772 324.74 74.6259 315.49 81.0487C306.241 87.4715 303.917 100.136 310.3 109.336C316.683 118.536 329.356 120.788 338.606 114.365Z" fill="black"/>
<path d="M321.96 107.37L318.99 91.2661C318.848 90.4408 319.603 89.757 320.404 89.9692L337.963 94.9443C338.859 95.2037 339.071 96.359 338.34 96.9249L323.727 108.054C323.091 108.573 322.125 108.219 321.96 107.37Z" fill="white"/>
<path d="M326.852 180.33C338.275 174.767 343.054 161.051 337.528 149.694C332.001 138.337 318.261 133.64 306.839 139.203C295.416 144.766 290.636 158.483 296.163 169.839C301.69 181.196 315.43 185.893 326.852 180.33Z" fill="#B9FF66"/>
<path d="M316.73 183.199C314.279 183.199 311.78 182.821 309.353 181.996C303.413 180.015 298.605 175.866 295.824 170.254C293.043 164.666 292.619 158.323 294.622 152.381C298.77 140.144 312.11 133.471 324.39 137.55C330.329 139.531 335.137 143.681 337.918 149.292C340.7 154.881 341.124 161.223 339.121 167.165C335.774 176.974 326.558 183.199 316.73 183.199ZM316.965 137.409C307.561 137.409 298.747 143.351 295.565 152.735C293.656 158.417 294.056 164.477 296.72 169.806C299.383 175.158 303.979 179.143 309.659 181.029C321.396 184.92 334.147 178.554 338.107 166.859C340.016 161.176 339.615 155.116 336.952 149.788C334.289 144.435 329.693 140.45 324.013 138.564C321.679 137.763 319.299 137.409 316.965 137.409Z" fill="black"/>
<path d="M328.561 156.06C328.325 161.79 318.638 175.182 316.328 178.318C316.093 178.648 315.598 178.625 315.386 178.271C313.924 175.913 309.093 167.991 306.571 161.578C305.557 159.031 304.921 156.72 304.992 155.093C305.251 148.586 310.743 143.516 317.248 143.776C323.753 144.082 328.82 149.552 328.561 156.06Z" fill="black"/>
<path d="M320.588 159.41C322.696 157.302 322.696 153.883 320.588 151.774C318.48 149.666 315.063 149.666 312.955 151.774C310.847 153.883 310.847 157.302 312.955 159.41C315.063 161.519 318.48 161.519 320.588 159.41Z" fill="#B9FF66"/>
<defs>
<clipPath id="clip0_343_698">
<rect width="21.2836" height="21.2836" fill="white" transform="translate(176.746 257.254)"/>
</clipPath>
<clipPath id="clip1_343_698">
<rect width="42.3321" height="42.3321" fill="white" transform="translate(64.8457 188.408) rotate(45)"/>
</clipPath>
</defs>
</svg>
