<?xml version="1.0" standalone="no"?>
<!DOCTYPE svg PUBLIC "-//W3C//DTD SVG 20010904//EN"
 "http://www.w3.org/TR/2001/REC-SVG-20010904/DTD/svg10.dtd">
<svg version="1.0" xmlns="http://www.w3.org/2000/svg"
 width="1057.000000pt" height="557.000000pt" viewBox="0 0 1057.000000 557.000000"
 preserveAspectRatio="xMidYMid meet">
<metadata>
Created by potrace 1.16, written by Peter Selinger 2001-2019
</metadata>
<g transform="translate(0.000000,557.000000) scale(0.100000,-0.100000)"
fill="#000000" stroke="none">
<path d="M8320 3984 c0 -420 -4 -674 -11 -719 -6 -38 -11 -81 -10 -93 1 -28
-37 -64 -59 -56 -8 3 -11 2 -7 -2 4 -4 -1 -16 -10 -27 -18 -19 -17 -20 7 -7
14 7 37 21 52 31 35 26 38 24 38 -16 0 -30 -5 -37 -33 -48 -44 -19 -94 -78
-107 -127 -12 -46 -27 -50 -60 -15 -26 28 -82 51 -155 64 l-49 9 24 -19 c14
-10 21 -19 15 -19 -5 0 -16 -4 -24 -9 -11 -7 -10 -14 5 -37 12 -17 14 -25 5
-20 -9 6 -8 1 3 -16 18 -27 13 -40 -12 -30 -12 4 -10 -4 9 -29 25 -33 62 -63
148 -121 27 -18 41 -35 41 -50 0 -19 4 -17 33 15 17 21 58 53 90 71 l57 35 1
-57 c1 -31 0 -460 0 -952 l-1 -895 -21 -17 c-20 -17 -71 -18 -760 -18 -406 0
-739 4 -739 8 0 4 5 13 12 20 9 9 4 10 -21 2 -18 -5 -80 -12 -139 -16 -99 -6
-113 -4 -188 21 -115 38 -144 57 -144 95 0 44 39 76 124 103 59 18 94 22 207
22 l136 0 -61 23 c-33 13 -86 32 -116 42 -73 24 -76 44 -13 72 34 15 75 22
143 26 91 4 116 0 192 -33 16 -6 16 -4 2 38 -12 36 -29 55 -90 101 -41 31 -80
54 -86 50 -7 -4 -8 -3 -4 4 3 6 -3 16 -14 22 -11 6 -20 7 -20 3 0 -4 -4 -2 -9
6 -11 17 -103 27 -157 17 -23 -5 -54 -24 -87 -54 -32 -30 -48 -40 -43 -27 4
12 -14 0 -45 -30 -34 -33 -46 -41 -34 -22 10 15 15 30 12 33 -3 3 -10 -4 -17
-15 -13 -25 -30 -28 -30 -5 0 12 -3 14 -13 6 -14 -12 -35 -11 -54 1 -8 5 -13
3 -13 -5 0 -7 -5 -5 -11 6 -9 15 -13 16 -20 5 -7 -12 -10 -12 -18 -1 -6 11
-10 10 -15 -4 -6 -16 -8 -16 -21 2 -8 10 -15 14 -15 7 0 -14 -31 -6 -42 11 -5
8 -8 7 -8 -1 0 -12 -17 -12 -36 0 -6 3 -19 -2 -29 -13 -13 -14 -22 -17 -35
-10 -13 7 -20 5 -24 -7 -5 -12 -9 -14 -18 -5 -15 15 -32 16 -23 2 3 -5 0 -10
-7 -11 -7 0 -30 -1 -51 -3 -26 -2 -34 0 -25 6 9 7 8 8 -5 4 -10 -3 -26 -6 -35
-6 -13 0 -13 -3 4 -16 19 -15 19 -15 0 -9 -11 3 -22 1 -26 -5 -4 -6 -17 -7
-40 0 -21 6 -38 6 -43 1 -6 -6 -19 -4 -33 6 -13 8 -31 13 -39 9 -8 -3 -15 -2
-15 3 0 5 -19 8 -42 8 l-43 0 50 -18 c44 -16 46 -18 15 -14 l-35 4 38 -12 c21
-7 34 -16 30 -21 -4 -5 2 -6 15 -2 12 3 32 9 45 12 35 10 15 -4 -29 -20 -33
-12 -35 -15 -14 -16 23 -1 23 -2 5 -10 -11 -5 -14 -9 -7 -9 24 -2 1 -21 -26
-22 -27 -1 -27 -1 3 -8 l30 -7 -25 -7 c-14 -4 -38 -7 -55 -8 -30 -2 -30 -2 5
-9 l35 -7 -35 -2 c-29 -2 -32 -4 -15 -11 11 -5 33 -9 49 -9 35 -1 30 -10 -10
-17 -15 -3 -35 -9 -43 -14 -12 -7 -9 -10 14 -11 22 -1 15 -4 -25 -12 -38 -8
-48 -12 -31 -15 19 -3 21 -6 10 -13 -16 -10 -11 -10 109 -12 39 -1 72 -5 72
-9 0 -4 -25 -8 -55 -8 -40 0 -56 -4 -63 -16 -6 -11 -17 -15 -31 -11 -11 3 -21
1 -21 -5 0 -5 -6 -6 -12 -3 -7 4 -4 -1 7 -10 19 -16 19 -16 -10 -10 -30 7 -30
7 -7 -10 12 -9 27 -13 33 -10 15 10 61 -4 54 -16 -4 -5 -3 -9 2 -7 4 1 22 -1
38 -4 17 -4 57 -10 89 -13 38 -5 54 -10 46 -15 -8 -5 -19 -6 -25 -3 -5 4 -6 2
-2 -3 5 -5 14 -9 20 -10 7 0 20 -2 31 -2 15 -2 16 -5 6 -17 -11 -13 -173 -15
-1301 -15 -1074 0 -1288 2 -1283 13 6 18 226 58 359 66 l99 6 -129 46 c-293
106 -608 144 -820 100 -153 -31 -235 -88 -235 -162 0 -24 7 -28 68 -47 l67
-21 -105 4 c-58 2 -163 10 -235 18 -123 14 -133 13 -187 -4 -53 -18 -95 -19
-532 -19 l-475 0 28 48 c16 27 32 60 36 73 4 13 22 44 39 69 l30 45 -40 -32
c-63 -50 -131 -80 -223 -98 -104 -22 -184 -16 -268 19 -34 14 -68 23 -76 20
-27 -10 -55 -76 -47 -111 l7 -33 -248 0 -249 0 0 -108 0 -108 38 -13 c20 -7
64 -23 97 -36 75 -29 257 -73 310 -75 87 -4 174 -4 260 -2 193 6 345 1 345
-10 0 -7 4 -7 13 -1 6 6 72 10 145 9 82 -1 132 3 132 9 0 7 3 7 8 0 4 -6 90
-10 222 -10 118 0 218 -4 221 -8 3 -4 26 -10 50 -12 30 -2 37 -1 24 5 -14 6
-6 8 30 8 28 -1 80 1 117 2 37 2 71 1 74 -3 4 -4 13 -2 19 3 7 6 67 10 141 9
284 -4 618 -3 773 0 103 3 166 1 168 -5 2 -7 27 -7 71 -2 37 5 249 6 472 2
223 -3 414 -5 425 -3 11 2 74 2 140 2 198 -2 794 -12 887 -15 48 -2 80 0 70 4
-9 4 -12 7 -5 7 6 1 24 -4 40 -11 20 -9 145 -13 463 -13 239 -1 554 -5 700
-10 310 -10 327 -10 360 -1 19 6 22 5 10 -3 -19 -13 -9 -14 24 -1 20 7 24 6
19 -6 -4 -10 0 -12 11 -8 9 3 14 9 11 14 -2 4 8 5 23 2 24 -5 24 -6 7 -13 -18
-7 -17 -8 5 -8 14 0 36 2 49 6 23 6 24 7 5 15 -11 4 8 6 46 3 113 -9 220 -15
380 -20 240 -7 361 -16 354 -26 -3 -5 7 -4 21 1 34 13 156 13 136 1 -9 -6 25
-9 92 -8 58 1 98 5 89 9 -30 12 8 9 71 -6 35 -8 57 -10 57 -4 0 6 15 8 33 5
17 -2 64 0 102 5 39 4 131 8 205 8 109 0 149 4 208 22 39 11 72 25 72 29 0 5
5 9 11 9 16 0 39 26 39 44 0 24 18 19 22 -6 2 -13 5 31 6 96 2 65 5 123 8 127
2 4 -3 12 -12 17 -15 8 -18 32 -22 148 -3 77 -8 141 -13 144 -4 3 -9 60 -11
128 -2 67 -6 122 -10 122 -4 0 -7 49 -7 110 0 60 -2 114 -6 120 -3 5 -8 22
-10 37 -2 16 -11 69 -19 118 -7 50 -12 94 -9 98 8 13 3 252 -7 329 -11 92 -16
469 -6 486 4 7 1 12 -9 12 -12 0 -14 8 -9 43 3 23 9 53 13 67 4 14 6 45 4 70
-2 25 -3 83 -2 130 5 241 3 316 -6 323 -6 6 -6 10 2 14 9 3 10 10 4 22 -5 9
-9 98 -9 196 0 99 -3 200 -7 224 -7 35 -5 42 5 36 10 -6 12 -4 6 11 -13 32
-16 80 -20 314 -3 124 -9 250 -14 280 -28 160 -128 234 -397 295 -33 7 -68 16
-77 20 -17 7 -18 -28 -18 -641z"/>
<path d="M9685 3560 c-3 -5 -19 -10 -36 -10 -16 0 -29 -5 -29 -11 0 -5 -4 -8
-9 -4 -6 3 -26 -9 -46 -26 -25 -22 -42 -30 -60 -27 -18 4 -26 0 -32 -16 -11
-34 -12 -46 -2 -52 13 -8 -14 -32 -45 -40 -39 -10 -33 -38 14 -63 22 -12 54
-21 71 -21 l30 0 -22 -29 c-19 -26 -20 -33 -10 -60 l13 -29 66 25 c37 13 79
35 93 49 14 13 28 21 32 18 3 -4 30 -9 60 -11 38 -3 58 0 68 10 8 7 19 12 25
10 12 -4 70 47 67 59 -3 7 20 12 40 9 5 -1 6 3 2 9 -3 5 1 10 10 10 11 0 15 5
12 15 -4 8 -2 17 4 20 5 4 7 11 4 16 -4 5 -3 9 2 9 4 0 13 11 20 25 7 16 8 25
1 25 -6 0 -5 7 2 15 10 12 15 13 21 4 4 -8 9 -5 14 9 3 12 11 21 17 19 6 -1
12 6 13 15 3 15 0 16 -18 7 -12 -6 -29 -20 -37 -30 -19 -24 -58 -26 -135 -5
-84 23 -96 26 -130 27 -47 2 -65 9 -65 25 0 16 -16 19 -25 4z"/>
<path d="M7865 3494 c19 -16 19 -16 -12 -11 -26 5 -31 3 -26 -8 3 -10 -1 -15
-13 -15 -16 0 -17 -2 -4 -10 11 -7 5 -10 -23 -10 -23 0 -36 -4 -32 -10 3 -5 2
-10 -4 -10 -6 0 -8 -7 -5 -15 7 -16 79 -40 155 -50 35 -5 50 -3 62 10 27 26
21 72 -13 105 -17 17 -34 30 -38 31 -4 0 -20 3 -37 5 -29 4 -29 4 -10 -12z"/>
<path d="M7991 3242 c5 -30 -4 -40 -42 -46 l-42 -7 23 -24 c13 -14 20 -25 15
-25 -5 0 -1 -6 9 -13 15 -11 12 -12 -19 -11 -23 1 -35 -2 -32 -10 5 -17 181
-86 185 -72 2 6 7 20 12 31 12 28 21 103 11 87 -6 -10 -12 -5 -21 18 -12 29
-46 57 -62 52 -5 -1 -8 2 -8 7 0 5 -7 11 -15 15 -8 3 -14 2 -14 -2z"/>
<path d="M600 3120 c0 -5 -4 -9 -9 -7 -4 1 -36 -21 -69 -49 l-61 -51 67 -7
c37 -3 101 -6 144 -6 71 0 76 1 71 20 -3 11 -8 18 -12 16 -3 -2 -15 0 -26 5
-19 7 -19 8 3 8 13 1 21 5 17 10 -3 5 5 12 17 14 13 2 -7 5 -44 6 -47 1 -68 5
-68 14 0 9 -3 8 -9 -2 -11 -17 -23 1 -15 23 3 9 3 16 0 16 -3 0 -6 -4 -6 -10z"/>
<path d="M9328 2895 c108 -49 101 -49 645 -52 l517 -4 0 40 0 41 -607 -1 -608
0 53 -24z"/>
<path d="M3726 2880 c-60 -18 -83 -62 -48 -93 37 -34 98 -38 512 -35 370 3
408 5 442 21 63 32 59 75 -9 104 -26 10 -121 13 -450 12 -230 0 -431 -5 -447
-9z"/>
<path d="M9392 2719 c-65 -11 -104 -30 -131 -65 -21 -27 -21 -28 -21 -975 l0
-948 33 -25 c17 -13 64 -34 102 -45 39 -12 105 -42 147 -66 43 -25 82 -45 87
-45 6 0 16 -8 23 -18 7 -11 31 -25 53 -32 22 -7 66 -25 98 -41 31 -15 57 -25
57 -23 0 3 10 -1 23 -8 12 -7 24 -12 27 -11 3 1 37 -9 75 -22 52 -17 72 -20
78 -12 6 9 10 9 14 0 2 -7 18 -13 33 -13 16 0 31 -4 34 -9 6 -8 169 -8 206 1
8 1 14 -3 12 -9 -1 -7 7 -13 19 -13 11 0 17 5 14 10 -3 6 1 10 10 10 9 0 13
-4 10 -10 -8 -13 10 -13 58 1 l37 10 0 198 0 199 -132 7 -133 8 40 18 40 18
-31 0 c-17 1 -51 -6 -74 -14 -48 -17 -125 -20 -115 -5 6 10 -21 3 -40 -10 -18
-13 -606 -22 -618 -10 -3 3 -7 416 -8 919 -2 879 -1 915 16 927 15 11 118 14
537 14 l518 0 0 50 0 50 -522 -1 c-288 -1 -547 -5 -576 -10z"/>
<path d="M1347 2264 c-3 -3 -22 -6 -41 -6 -25 0 -36 -5 -36 -14 0 -11 -4 -12
-19 -4 -14 7 -22 7 -26 0 -4 -6 -11 -8 -16 -4 -6 3 -45 8 -87 10 -57 3 -73 1
-62 -7 11 -8 6 -9 -20 -5 -22 4 -30 3 -21 -3 9 -6 2 -10 -23 -13 -20 -2 -38 1
-40 7 -3 6 -5 6 -5 -1 -1 -7 -17 -10 -43 -8 -29 3 -37 1 -24 -4 12 -5 15 -11
9 -15 -5 -3 -19 0 -29 8 -10 8 -22 15 -26 15 -12 0 35 -51 57 -63 12 -6 104
-11 237 -12 165 -2 222 -6 235 -16 10 -7 15 -10 11 -5 -4 5 4 24 19 42 15 21
23 42 20 54 -3 10 0 21 7 24 6 3 -1 5 -15 3 -14 -1 -33 4 -41 11 -8 6 -18 9
-21 6z"/>
<path d="M1747 2204 c-19 -7 -41 -8 -55 -3 -15 6 -21 5 -17 -1 3 -6 1 -10 -4
-10 -6 0 -11 5 -11 10 0 16 -37 12 -55 -7 -14 -14 -20 -14 -37 -4 -44 27 -26
0 26 -41 l55 -43 -32 -35 -32 -35 36 33 c34 32 38 33 135 35 113 3 202 27 240
66 13 13 22 26 19 29 -3 3 -12 -4 -21 -16 -8 -12 -20 -20 -25 -17 -5 4 -9 0
-10 -7 0 -7 -4 -4 -8 7 -7 16 -3 21 18 26 20 4 13 7 -31 13 -32 5 -65 6 -73 2
-10 -3 -13 -2 -10 4 8 13 -63 9 -108 -6z"/>
<path d="M99 2110 c-1 -17 -3 -20 -6 -7 -2 9 -11 17 -19 17 -13 0 -14 -51 -14
-362 2 -390 -1 -369 45 -304 14 20 35 14 35 -10 0 -11 4 -10 18 4 11 9 17 21
14 26 -3 5 0 6 6 2 7 -4 13 -19 13 -34 1 -24 3 -23 12 10 11 38 37 60 37 31 0
-12 3 -13 13 -4 8 6 18 7 22 3 5 -4 5 1 2 11 -9 23 5 22 26 -3 10 -12 22 -18
28 -15 5 4 17 1 26 -7 15 -11 16 -11 10 5 -6 15 -4 16 13 7 16 -9 22 -8 26 5
8 20 23 19 48 -2 21 -18 21 -18 3 3 -20 24 -11 40 11 21 13 -10 15 -9 9 6 -5
15 -4 16 12 7 14 -7 21 -6 23 2 4 10 10 10 31 1 l27 -13 -17 28 c-10 16 -11
22 -3 15 8 -7 21 -13 29 -13 11 0 10 4 -5 15 -18 14 -17 14 9 5 43 -15 46 -11
7 10 -32 18 -32 19 -7 14 26 -6 33 1 28 29 -1 4 7 3 18 -3 25 -13 53 -14 31
-1 -18 12 42 7 89 -8 l34 -10 -37 36 c-57 57 -66 125 -22 162 9 7 13 18 9 25
-3 6 -3 8 2 4 11 -11 47 11 39 24 -4 6 -3 9 2 5 12 -7 86 48 77 57 -3 3 0 6 8
6 11 0 11 2 -1 10 -13 8 -12 10 4 10 11 0 17 3 14 6 -3 3 -25 0 -47 -6 -45
-12 -79 -3 -45 12 20 9 -21 3 -58 -8 -10 -3 -18 -1 -18 5 0 6 8 11 18 11 9 0
24 5 32 11 11 7 3 9 -32 7 -25 -2 -44 1 -41 6 4 5 -6 6 -21 2 -68 -16 -77 -15
-31 4 27 12 52 25 55 29 3 4 20 13 38 20 59 24 44 30 -26 11 -37 -10 -80 -24
-96 -30 -15 -5 -32 -7 -38 -4 -6 4 -8 2 -5 -3 4 -6 0 -14 -9 -17 -10 -4 -13
-2 -8 6 5 8 2 9 -10 5 -10 -4 -20 -7 -22 -7 -3 0 -2 -4 1 -10 4 -6 -1 -7 -11
-3 -16 6 -16 7 2 19 10 7 28 20 39 29 l20 15 -20 -7 c-11 -3 -30 -13 -42 -21
-15 -9 -23 -10 -23 -3 0 6 5 11 10 11 6 0 10 7 10 17 0 15 -2 15 -19 -1 -26
-23 -45 -13 -30 16 9 16 8 19 -3 12 -21 -14 -59 -12 -54 3 4 10 1 11 -13 3
-11 -5 -22 -15 -24 -22 -3 -7 -6 1 -7 17 l-1 30 -19 -35 -18 -35 4 45 c2 30 1
37 -4 21 -4 -14 -14 -27 -21 -29 -9 -3 -11 0 -6 8 5 9 4 11 -3 6 -7 -4 -12
-14 -12 -23 0 -23 -10 -10 -25 34 l-14 38 -1 -35 c-1 -34 -1 -34 -16 -15 -15
20 -15 20 -30 1 -14 -19 -14 -19 -15 5 0 13 -3 18 -6 11 -4 -10 -8 -9 -19 5
-13 17 -13 17 -14 -2 -1 -16 -4 -14 -15 10 -14 30 -14 30 -16 5z"/>
<path d="M2575 1820 c-7 -21 -21 -27 -27 -11 -3 11 -94 18 -104 9 -3 -4 -20
-4 -38 -1 -40 6 -115 -13 -123 -32 -3 -10 -13 -13 -29 -9 -15 4 -24 2 -24 -6
0 -6 4 -9 9 -6 5 3 11 0 14 -7 6 -16 103 -51 117 -42 5 3 10 2 10 -4 0 -5 29
-13 65 -16 56 -6 65 -10 65 -28 0 -15 6 -11 26 19 15 21 35 50 45 63 11 13 19
39 19 57 0 37 -15 46 -25 14z"/>
<path d="M2695 1741 c-27 -16 -79 -63 -115 -103 -36 -40 -51 -61 -33 -47 30
25 38 26 179 31 98 4 149 9 152 17 2 6 8 9 12 6 15 -9 60 6 53 18 -3 5 -1 7 5
3 13 -8 62 13 62 27 0 6 -5 6 -12 0 -20 -15 -43 -9 -40 10 2 10 -2 15 -10 12
-7 -2 -24 -6 -38 -9 -14 -2 -34 -8 -45 -12 -14 -5 -17 -4 -10 4 6 6 35 17 65
25 30 9 48 16 40 16 -16 1 -129 -30 -165 -45 -18 -7 -19 -6 -5 11 14 17 13 18
-3 12 -10 -4 -16 -3 -13 2 3 5 -2 18 -12 30 l-17 21 -50 -29z"/>
<path d="M2899 1561 c-36 -36 -37 -60 -3 -101 l27 -31 -39 -42 -39 -42 45 41
c25 23 62 48 84 55 38 14 76 50 76 74 0 21 -69 75 -96 75 -15 0 -38 -12 -55
-29z"/>
<path d="M2690 1544 c-109 -23 -149 -42 -156 -72 -3 -15 -10 -42 -16 -60 -5
-18 -8 -35 -6 -37 2 -2 39 1 82 6 78 10 154 39 161 62 7 23 12 117 6 116 -3
-1 -35 -7 -71 -15z"/>
<path d="M3223 1302 l-32 -3 36 -50 c47 -65 88 -96 170 -126 52 -19 243 -53
295 -53 16 0 8 21 -29 72 -44 63 -63 79 -128 111 -68 33 -229 59 -312 49z"/>
<path d="M1525 1279 c13 -5 5 -6 -21 -2 -23 3 -44 1 -48 -5 -3 -6 -19 -7 -40
-2 -31 7 -38 4 -68 -28 -18 -19 -26 -31 -18 -27 8 5 4 -5 -10 -21 -14 -15 -17
-22 -7 -15 14 11 17 11 17 0 0 -7 11 -3 27 12 18 17 24 19 20 7 -4 -13 0 -16
19 -14 13 2 27 6 31 9 3 4 15 -1 25 -10 18 -16 19 -16 8 12 l-11 30 27 -25
c20 -19 26 -21 21 -7 -4 9 -2 17 3 17 6 0 10 -4 10 -10 0 -5 5 -10 11 -10 6 0
9 6 6 14 -4 10 4 13 33 12 21 -1 38 2 37 7 -2 7 66 37 75 33 2 0 -3 4 -10 11
-11 9 -9 12 10 16 13 2 -20 4 -72 4 -60 0 -88 -3 -75 -8z"/>
<path d="M9711 1209 c-13 -5 -26 -7 -28 -5 -5 5 -38 -20 -66 -51 -11 -13 -28
-23 -36 -23 -20 -1 -54 -47 -46 -61 4 -5 -1 -18 -12 -27 -27 -26 -26 -39 8
-62 21 -16 41 -21 68 -18 l37 3 -18 -31 c-18 -30 -18 -32 2 -57 l20 -25 -40 5
c-43 6 -51 0 -21 -17 24 -12 55 -1 95 34 16 14 39 26 51 26 12 0 30 9 39 19
16 17 21 18 49 6 29 -12 59 -6 77 16 3 4 16 10 30 14 48 14 125 54 142 73 15
19 15 21 -5 27 -19 6 -20 8 -4 12 19 5 24 57 6 69 -8 4 -7 9 2 14 7 5 -14 8
-47 8 -97 0 -222 19 -244 37 -26 21 -34 23 -59 14z"/>
</g>
</svg>
